<svg xmlns="http://www.w3.org/2000/svg" width="222.949" height="58.506" viewBox="0 0 222.949 58.506">
  <defs>
    <style>
      .cls-1, .cls-2 {
        fill: #fff;
      }

      .cls-1 {
        font-size: 41px;
        font-family: Helvetica-Bold, Helvetica;
        font-weight: 700;
        letter-spacing: -0.03em;
      }
    </style>
  </defs>
  <g id="Grupo_7" data-name="Grupo 7" transform="translate(-17.547 -14.358)">
    <g id="Grupo_6" data-name="Grupo 6" transform="translate(92.496 8.805)">
      <text id="conecte" class="cls-1" transform="translate(0 46)"><tspan x="0" y="0">conecte</tspan></text>
    </g>
    <path id="Exclusión_3" data-name="Exclusión 3" class="cls-2" d="M29.282,58.506h0A29.236,29.236,0,0,1,3.925,43.878,29.256,29.256,0,0,1,29.229,0,29.234,29.234,0,0,1,54.585,14.629a29.257,29.257,0,0,1-25.3,43.877ZM23.518,6.919l-.166.005-.166.009-.331.051-.166.036-.166.028-.166.028-.166.017-.331.056-.166.041-.331.083L21.2,7.31l-.166.047-.166.036-.331.088-.331.105-.166.06-.331.143-.166.087-.331.166-.166.079-.165.1-.331.194-.331.2-.165.105-.166.105-.166.124-.166.13-.331.267-.166.128-.331.28-.318.318-.28.331-.263.331-.266.331-.248.331-.216.331-.092.166-.1.166-.171.331-.073.166-.166.331-.088.166-.141.331-.12.331-.111.331-.1.331-.042.166-.083.331-.041.166-.051.331-.028.331-.023.166-.064.331-.028.166-.023.166-.015.331v.828l.006.331.009.166.051.331.036.166.028.166.027.167.019.166.056.331.041.166.083.331.042.166.1.331.111.331.12.331.142.331.088.166.166.331.077.166.189.331.106.166.216.331.111.166.234.331.13.166.266.331.133.166.13.166.28.331.156.166.327.331.331.331,1.49,1.49,1.655,1.655.331.331.166.166.166.162.156.152.166.132.092.088.248.128V30.1l-.248.13-.092.087-.166.133L21.2,30.6l-.331.326-.166.166-.331.331-1.655,1.657L16.9,34.9l-.331.331-.166.166-.318.331-.276.331-.119.166-.226.331-.216.331-.105.166-.188.331-.079.166-.166.331-.092.166-.073.166-.088.166-.141.331-.06.166-.115.331-.106.331-.051.166-.088.331-.036.166-.041.166-.056.331-.019.166-.027.166-.028.166-.036.166-.051.331-.009.166-.006.331v.662l.006.331.009.166.051.331.036.166.055.331.019.167.056.331.077.331.047.166.036.166.047.166.036.166.1.331.065.166.128.331.129.331.073.166.073.166.092.166.092.166.2.331.2.331.1.166.119.166.115.166.254.331.276.331.147.16.137.158.267.28.137.128.3.28.327.3.331.275.166.12.331.216.165.1.166.1.331.188.331.166.166.069.331.147.165.083.166.069.331.133.331.105.331.087.166.037.165.045.166.037.166.045.166.037.331.069.166.023.331.013h.166l.331.013.331.051.166.032.331.019.331-.051.331-.051.166-.008.166-.005.331,0,.166-.009.331-.051L26,52.671l.331-.083.166-.037.166-.045.166-.037.333-.087.164-.051.331-.115.331-.143.167-.083.331-.147.166-.069.331-.166.331-.188.166-.105.166-.1.166-.12.331-.243.166-.124.331-.28.166-.158.166-.16L31.3,49.8l.828-.828,3.311-3.311.331-.331L36.1,45l.165-.156.331-.28.331-.267.165-.143.331-.318.166-.166.5-.5,1.159-1.159,3.809-3.807,3.973-3.973,1.324-1.324.5-.5.166-.167.318-.331.143-.16.252-.3.115-.137.115-.13.12-.137.133-.143.143-.156.307-.318.166-.166.34-.34-.128-.248-.088-.092-.132-.166-.152-.156L50.5,29.1l-.166-.166-.331-.331-1.159-1.159-4.138-4.138-10.43-10.43-1.986-1.986-.331-.331L31.8,10.4l-.166-.166L31.3,9.913l-.331-.28L30.8,9.5l-.166-.137-.331-.284-.166-.133-.166-.13-.166-.105-.331-.2-.331-.2-.166-.092-.166-.1-.331-.166-.165-.069-.166-.073-.333-.129-.331-.128-.165-.064-.331-.1-.166-.036-.166-.047L26.5,7.274l-.331-.083L26,7.15l-.331-.056L25.5,7.076l-.331-.056-.166-.036-.331-.051-.166-.009-.331-.005h-.662Zm.5,42.031h-.166l-.331-.045-.331-.065-.166-.023-.331-.027-.331-.051-.331-.079-.166-.051-.166-.045-.331-.133-.165-.088-.166-.077-.166-.1-.166-.092-.331-.216-.331-.24-.331-.247-.162-.125-.3-.28-.262-.316-.128-.166-.235-.331-.2-.331-.079-.166-.092-.166-.073-.166-.087-.166-.143-.331-.06-.166-.105-.331-.041-.167-.083-.331-.042-.166-.051-.331-.013-.331v-.662l0-.331.009-.166.051-.331.037-.166.064-.331.068-.331.047-.166.115-.331.073-.166.069-.166.087-.166.073-.166.092-.166.079-.166.2-.331.129-.166.134-.166.284-.331.139-.166.128-.166.28-.331.318-.331.166-.166.166-.166.331-.331,1.49-1.49.331-.331.331-.327.166-.156.331-.28.166-.129.331-.28.166-.156.166-.16.331-.331.828-.829,2.815-2.814,8.276-8.277h.331l8.774,8.773V30.1L33.451,42.181l-3.476,3.477-.5.5-.331.331-.331.326-.166.156-.331.28-.166.125-.167.128-.166.119-.166.125-.166.115-.33.216-.167.092-.166.1-.166.077-.166.088-.331.133L26,48.61l-.166.051-.331.079-.331.051-.331.027-.331.051-.166.037-.331.045Zm.662-21.834h0l-3.806-3.806-.662-.662-.331-.331-.331-.331-.162-.166-.3-.331-.132-.166-.235-.331-.222-.331-.211-.331-.092-.166L18.1,20l-.137-.331-.1-.331-.036-.166-.083-.332-.047-.166-.036-.166-.042-.166-.051-.331-.013-.331v-.828l0-.166.009-.166.051-.331.077-.331.047-.166.036-.166.047-.166.036-.166.1-.331.137-.331.092-.166.092-.166.105-.166.216-.331.226-.331.12-.166.275-.327.156-.156.327-.28.165-.124.331-.248.166-.124.331-.226.166-.1.166-.088.166-.077.331-.124.166-.056.166-.055.331-.1.331-.069.331-.064.166-.037.331-.051.166-.009.331,0h.331l.166,0,.166.009.331.051.331.069.331.064.166.037.166.045.331.105.166.056.331.124.331.166.167.1.33.226.166.124.166.12.166.128.167.124.331.28.331.318.166.166.331.331L31.3,15.528l1.324,1.324.331.331.166.166.16.166.152.158.133.164.087.092.129.248-5.96,5.96-1.655,1.655-.331.331-.166.166-.331.327-.156.151-.166.134-.092.088-.247.128Z" transform="translate(17.547 14.358)"/>
  </g>
</svg>
